# xmcd
#
# Track frame offsets: 
#        150
#        17954
#        33963
#        48907
#        61263
#        74991
#        85968
#        101698
#        112943
#        131430
#
# Disc length: 1844 seconds
#
# Revision: 0
# Processed by: cddbd v1.5.2PL0 Copyright (c) Steve Scherf et al.
# Submitted via: ExactAudioCopy v1.0b1
#
DISCID=8607320a
DTITLE=Greg McDougal - It's a Family Thing
DYEAR=1900
DGENRE=Gospel
TTITLE0=This Time's for the Lord
TTITLE1=The Lighthouse
TTITLE2=The Work of a Carpenter
TTITLE3=Battle Hymn of Love
TTITLE4=Ask Me Why
TTITLE5=Johnny and June
TTITLE6=While I Still Can
TTITLE7=Get Up in Jesus' Name
TTITLE8=Father I Praise You
TTITLE9=Star-Spangled Banner
EXTD=
EXTT0=
EXTT1=
EXTT2=
EXTT3=
EXTT4=
EXTT5=
EXTT6=
EXTT7=
EXTT8=
EXTT9=
PLAYORDER=
